<svg width="107" height="76" viewBox="0 0 107 76" fill="none" xmlns="http://www.w3.org/2000/svg">
<g clip-path="url(#clip0_59_370)">
<path d="M8.43201 0.961548L7.35156 5.98448L26.5914 6.37326C27.3611 6.38714 28.0426 6.87312 28.2968 7.5882L32.7457 20.1056C37.3288 32.9979 50.7073 36.9968 61.4448 31.5157C67.585 28.3811 71.8185 22.532 73.0367 15.8359L74.4843 7.86591C74.6397 7.01197 75.3882 6.38714 76.2674 6.36979L97.6999 5.98448V1.60026L69.5411 1.45447C68.8384 1.451 68.2629 2.00293 68.2488 2.69371C68.1499 7.69581 66.6705 26.045 50.3013 26.045C40.7785 26.045 36.0224 10.6082 34.4582 4.1933C34.0627 2.57569 32.608 1.4267 30.9167 1.39199L8.42848 0.961548H8.43201Z" fill="#D3D8ED"/>
<path d="M56.6349 35.7194H48.415V52.5377H56.6349V35.7194Z" fill="#D3D8ED"/>
<path d="M53.5886 21.9419H51.4595C49.1994 21.9419 47.3672 23.7431 47.3672 25.9651V34.737C47.3672 36.959 49.1994 38.7602 51.4595 38.7602H53.5886C55.8487 38.7602 57.6809 36.959 57.6809 34.737V25.9651C57.6809 23.7431 55.8487 21.9419 53.5886 21.9419Z" fill="#2E323F"/>
<path d="M38.2891 65.8084V76H45.2237V65.8084C45.2237 61.4693 48.1155 56.2728 52.5256 56.2728C56.9392 56.2728 60.057 61.4693 60.057 65.8084V76H66.7621V65.8084C66.7621 61.4693 63.1853 51.4963 58.7753 51.4963H46.2759C41.8623 51.4963 38.2891 61.4727 38.2891 65.8084Z" fill="#2B787A"/>
<path d="M20.3626 0H2.73291C1.22356 0 0 1.2029 0 2.68676V4.35992C0 5.84377 1.22356 7.04668 2.73291 7.04668H20.3626C21.872 7.04668 23.0955 5.84377 23.0955 4.35992V2.68676C23.0955 1.2029 21.872 0 20.3626 0Z" fill="#2B787A"/>
<path d="M104.267 0H86.6372C85.1279 0 83.9043 1.2029 83.9043 2.68676V4.35992C83.9043 5.84377 85.1279 7.04668 86.6372 7.04668H104.267C105.776 7.04668 107 5.84377 107 4.35992V2.68676C107 1.2029 105.776 0 104.267 0Z" fill="#2B787A"/>
</g>
<defs>
<clipPath id="clip0_59_370">
<rect width="107" height="76" fill="white"/>
</clipPath>
</defs>
</svg>
