<svg width="102" height="102" viewBox="0 0 102 102" fill="none" xmlns="http://www.w3.org/2000/svg">
<g clip-path="url(#clip0_56_340)">
<path d="M51.0015 95.0657C26.7026 95.0657 6.93457 75.2977 6.93457 50.9988C6.93457 26.6998 26.7026 6.93427 51.0015 6.93427C75.3005 6.93427 95.0685 26.7023 95.0685 51.0012C95.0685 75.3002 75.3005 95.0682 51.0015 95.0682V95.0657ZM51.0015 9.83321C28.3031 9.83321 9.83594 28.3004 9.83594 50.9988C9.83594 73.6972 28.3031 92.1644 51.0015 92.1644C73.6999 92.1644 92.1671 73.6972 92.1671 50.9988C92.1671 28.3004 73.6999 9.83563 51.0015 9.83563V9.83321Z" fill="#D3D8ED"/>
<path d="M51.0012 102C22.8797 102 0 79.1227 0 51.0012C0 22.8797 22.8797 0 51.0012 0C79.1227 0 102.002 22.8797 102.002 51.0012C102.002 79.1227 79.1227 102.002 51.0012 102.002V102ZM51.0012 7.01164C26.7458 7.01164 7.01164 26.7458 7.01164 51.0012C7.01164 75.2566 26.7458 94.9908 51.0012 94.9908C75.2566 94.9908 94.9908 75.2566 94.9908 51.0012C94.9908 26.7458 75.2566 7.01164 51.0012 7.01164Z" fill="#2E323F"/>
<path d="M50.8517 59.64C46.1709 59.64 42.3652 55.832 42.3652 51.1535C42.3652 46.4751 46.1733 42.667 50.8517 42.667C55.5302 42.667 59.3382 46.4751 59.3382 51.1535C59.3382 55.832 55.5302 59.64 50.8517 59.64ZM50.8517 43.8735C46.8382 43.8735 43.5741 47.1375 43.5741 51.1511C43.5741 55.1647 46.8382 58.4287 50.8517 58.4287C54.8653 58.4287 58.1293 55.1647 58.1293 51.1511C58.1293 47.1375 54.8653 43.8735 50.8517 43.8735Z" fill="#D3D9ED"/>
<path d="M51.0178 59.8939C50.8002 59.8939 50.5802 59.8866 50.3602 59.8697C48.0995 59.6981 46.042 58.656 44.5647 56.9345C41.5158 53.3827 41.9244 48.0152 45.4762 44.9664C49.028 41.9175 54.3955 42.3261 57.4443 45.8779C60.4932 49.4296 60.0846 54.7972 56.5328 57.846C54.9806 59.1782 53.0415 59.8939 51.0178 59.8939ZM50.9985 44.1298C49.3205 44.1298 47.6329 44.7052 46.262 45.8827C43.218 48.4964 42.8674 53.1023 45.481 56.1463C46.748 57.6212 48.513 58.5158 50.4521 58.6632C52.3887 58.8107 54.2698 58.1942 55.7446 56.9273C57.2195 55.6603 58.1141 53.8953 58.2616 51.9562C58.4091 50.0172 57.7925 48.1385 56.5256 46.6637C55.0894 44.9905 53.0488 44.1298 50.9985 44.1298Z" fill="#D3D9ED"/>
<path d="M29.9037 13.9608L29.4844 14.2015L71.9262 88.1295L72.3455 87.8887L29.9037 13.9608Z" fill="#D3D9ED"/>
<path d="M84.2908 24.5067L17.1172 76.9885L17.4149 77.3695L84.5886 24.8877L84.2908 24.5067Z" fill="#D3D9ED"/>
<path d="M56.4188 9.26993L43.7158 93.5627L44.194 93.6348L56.8969 9.34199L56.4188 9.26993Z" fill="#D3D9ED"/>
<path d="M43.3404 9.66829L42.8652 9.7579L58.6631 93.5259L59.1383 93.4362L43.3404 9.66829Z" fill="#D3D9ED"/>
<path d="M7.70569 50.7665L7.70215 51.2501L92.9445 51.8749L92.948 51.3914L7.70569 50.7665Z" fill="#D3D9ED"/>
<path d="M72.9256 15.3176L27.2744 87.308L27.6828 87.5669L73.334 15.5766L72.9256 15.3176Z" fill="#D3D9ED"/>
<path d="M11.6028 33.6158L11.4043 34.0568L89.1393 69.0412L89.3378 68.6003L11.6028 33.6158Z" fill="#D3D9ED"/>
<path d="M91.1905 38.5376L9.78906 63.8446L9.93262 64.3063L91.3341 38.9993L91.1905 38.5376Z" fill="#D3D9ED"/>
<path d="M19.221 22.5552L18.8965 22.9138L82.096 80.1192L82.4205 79.7607L19.221 22.5552Z" fill="#D3D9ED"/>
<path d="M50.8509 57.2706C54.2306 57.2706 56.9704 54.5308 56.9704 51.1511C56.9704 47.7714 54.2306 45.0316 50.8509 45.0316C47.4712 45.0316 44.7314 47.7714 44.7314 51.1511C44.7314 54.5308 47.4712 57.2706 50.8509 57.2706Z" fill="#2B787A"/>
</g>
<defs>
<clipPath id="clip0_56_340">
<rect width="102" height="102" fill="white"/>
</clipPath>
</defs>
</svg>
