<svg width="103" height="73" viewBox="0 0 103 73" fill="none" xmlns="http://www.w3.org/2000/svg">
<g clip-path="url(#clip0_56_356)">
<path d="M102.555 63.1608L75.2181 2.31816C74.4297 0.485458 72.3575 -0.440514 70.4919 0.205314C69.4527 0.564583 68.6158 1.36438 68.1984 2.39514C67.7852 3.41521 67.8211 4.56573 68.2954 5.55799L76.1161 22.7345L42.6386 33.9937L41.4307 30.525C40.7182 28.4806 38.5491 27.3451 36.4938 27.9417C35.4018 28.2582 34.4848 29.0324 33.9768 30.0653C33.4688 31.0982 33.4161 32.3064 33.825 33.3821L35.1488 36.8529L5.15382 47.2503C4.56779 47.3465 4.01549 47.5753 3.54119 47.9196C0.318022 50.2613 -0.866685 54.4934 0.66163 58.208C1.35095 59.8824 2.80127 61.1249 4.5446 61.5312C4.55936 61.5355 4.57412 61.5376 4.58887 61.5419L4.72379 61.6039L47.4386 72.876L47.6094 72.9123C47.9424 72.9701 48.2776 72.9979 48.6086 72.9979C50.4046 72.9979 52.1332 72.181 53.2863 70.7439L80.6505 36.6283C82.0439 39.7014 84.3458 44.7611 86.711 49.8721C94.4475 66.5824 95.3054 67.5511 95.7207 68.0173C95.7924 68.0986 95.8683 68.1777 95.9463 68.2504C97.3249 69.5613 99.6332 69.6126 101.318 68.3723C102.968 67.1555 103.455 65.1111 102.557 63.1608H102.555ZM43.5072 64.2471L8.22099 55.0045C8.12192 54.966 8.02705 54.9339 7.94273 54.9083L37.7691 44.5151L43.5093 64.245L43.5072 64.2471ZM73.8078 31.5109L51.3406 61.2254L44.8036 41.0807L73.8078 31.5109Z" fill="#2B787A"/>
</g>
<defs>
<clipPath id="clip0_56_356">
<rect width="103" height="73" fill="white"/>
</clipPath>
</defs>
</svg>
