<svg width="68" height="68" viewBox="0 0 68 68" fill="none" xmlns="http://www.w3.org/2000/svg">
<g clip-path="url(#clip0_1_62)">
<path d="M61.0938 40.2156C70.9219 30.3875 70.2313 14.025 59.1281 5.1C50.4156 -1.85937 37.7188 -1.64687 29.2719 5.525C19.2844 13.9719 18.2219 28.6344 26.1375 38.3563L20.0812 44.4125L18.3281 42.6594L1.43437 59.5C-0.478125 61.4125 -0.478125 64.6 1.43437 66.5125C3.34687 68.425 6.53437 68.425 8.44687 66.5125L25.3406 49.6188L23.5875 47.8656L29.5906 41.8625C38.8875 49.3531 52.4875 48.8219 61.0938 40.2156ZM31.2906 10.4125C38.5688 3.13438 50.3625 3.13438 57.5875 10.4125C64.8125 17.6906 64.8656 29.4844 57.5875 36.7094C50.3094 43.9875 38.5156 43.9875 31.2906 36.7094C24.0656 29.4313 24.0125 17.6375 31.2906 10.4125Z" fill="white"/>
</g>
<defs>
<clipPath id="clip0_1_62">
<rect width="68" height="68" fill="white"/>
</clipPath>
</defs>
</svg>
