<svg width="24" height="24" viewBox="0 0 24 24" fill="none" xmlns="http://www.w3.org/2000/svg">
<path fill-rule="evenodd" clip-rule="evenodd" d="M3.7798 3.16428C4.59778 2.34215 5.6938 1.89189 6.82284 1.89189H17.4895C18.6185 1.89189 19.7146 2.34215 20.5325 3.16428C21.3525 3.98835 21.8228 5.11765 21.8228 6.30631V17.027C21.8228 18.2157 21.3525 19.345 20.5325 20.1691C19.7146 20.9912 18.6185 21.4414 17.4895 21.4414H6.82284C5.6938 21.4414 4.59779 20.9912 3.7798 20.1691C2.95988 19.345 2.4895 18.2157 2.4895 17.027V6.30631C2.4895 5.11765 2.95988 3.98835 3.7798 3.16428ZM6.82284 0C5.1229 0 3.5058 0.679247 2.3234 1.86764C1.14293 3.05409 0.489502 4.65165 0.489502 6.30631V17.027C0.489502 18.6817 1.14293 20.2792 2.3234 21.4657C3.5058 22.6541 5.12289 23.3333 6.82284 23.3333H17.4895C19.1894 23.3333 20.8065 22.6541 21.9889 21.4657C23.1694 20.2792 23.8228 18.6817 23.8228 17.027V6.30631C23.8228 4.65165 23.1694 3.05409 21.9889 1.86764C20.8065 0.679248 19.1894 0 17.4895 0H6.82284ZM19.1561 5.63624C19.1561 5.11381 18.7084 4.6903 18.1561 4.6903C17.6038 4.6903 17.1561 5.11381 17.1561 5.63624V5.64964C17.1561 6.17208 17.6038 6.59559 18.1561 6.59559C18.7084 6.59559 19.1561 6.17208 19.1561 5.64964V5.63624ZM12.1561 6.70043C10.8098 6.70043 9.53181 7.23849 8.59946 8.17557C7.66904 9.1107 7.15609 10.3674 7.15609 11.6666C7.15609 12.9659 7.66904 14.2226 8.59946 15.1577C9.53181 16.0948 10.8098 16.6329 12.1561 16.6329C13.5024 16.6329 14.7804 16.0948 15.7127 15.1577C16.6431 14.2226 17.1561 12.9659 17.1561 11.6666C17.1561 10.3674 16.6431 9.1107 15.7127 8.17557C14.7804 7.23849 13.5024 6.70043 12.1561 6.70043ZM10.0559 9.47221C10.6238 8.90139 11.3807 8.59233 12.1561 8.59233C12.9315 8.59233 13.6884 8.90139 14.2563 9.47221C14.8262 10.045 15.1561 10.8334 15.1561 11.6666C15.1561 12.4999 14.8262 13.2883 14.2563 13.8611C13.6884 14.4319 12.9315 14.741 12.1561 14.741C11.3807 14.741 10.6238 14.4319 10.0559 13.8611C9.48599 13.2883 9.15609 12.4999 9.15609 11.6666C9.15609 10.8334 9.48599 10.045 10.0559 9.47221Z" fill="#868686"/>
</svg>
