<svg width="22" height="23" viewBox="0 0 22 23" fill="none" xmlns="http://www.w3.org/2000/svg">
<path d="M18.5092 3.9859C17.511 2.98265 16.3221 2.18721 15.0117 1.64596C13.7013 1.10471 12.2957 0.82849 10.8769 0.833408C4.93216 0.833408 0.0871023 5.65423 0.0871023 11.5692C0.0871023 13.465 0.58794 15.3067 1.52429 16.9317L0 22.5L5.71608 21.005C7.29481 21.8608 9.06951 22.3158 10.8769 22.3158C16.8216 22.3158 21.6667 17.495 21.6667 11.58C21.6667 8.70922 20.5452 6.01173 18.5092 3.9859ZM10.8769 20.4958C9.26549 20.4958 7.68677 20.0625 6.30402 19.25L5.97739 19.055L2.5804 19.9434L3.48409 16.65L3.26633 16.3142C2.37108 14.8917 1.89571 13.2476 1.89447 11.5692C1.89447 6.65089 5.92295 2.64257 10.866 2.64257C13.2613 2.64257 15.5151 3.57423 17.2027 5.26423C18.0383 6.09185 18.7005 7.07627 19.1509 8.16043C19.6013 9.24459 19.831 10.4069 19.8266 11.58C19.8484 16.4984 15.8199 20.4958 10.8769 20.4958ZM15.7982 13.8225C15.526 13.6925 14.1977 13.0425 13.9581 12.945C13.7077 12.8584 13.5335 12.815 13.3484 13.075C13.1633 13.3459 12.6516 13.9525 12.4992 14.1259C12.3467 14.31 12.1834 14.3317 11.9112 14.1909C11.639 14.0609 10.768 13.7684 9.74455 12.8584C8.93886 12.1434 8.40536 11.2659 8.24204 10.995C8.08961 10.7242 8.22027 10.5834 8.36181 10.4425C8.48157 10.3234 8.634 10.1284 8.76466 9.97671C8.89531 9.82505 8.94975 9.70588 9.03685 9.53255C9.12395 9.34838 9.0804 9.19672 9.01507 9.06672C8.94975 8.93672 8.40536 7.61506 8.1876 7.07339C7.96985 6.55339 7.74121 6.61839 7.57789 6.60756H7.05527C6.87018 6.60756 6.5871 6.67256 6.33668 6.94339C6.09715 7.21422 5.40033 7.86422 5.40033 9.18588C5.40033 10.5075 6.36935 11.7859 6.5 11.9592C6.63065 12.1434 8.40536 14.8517 11.1055 16.0109C11.7479 16.2925 12.2487 16.455 12.6407 16.5742C13.2831 16.78 13.871 16.7475 14.3392 16.6825C14.8618 16.6067 15.9397 16.0325 16.1575 15.4042C16.3861 14.7759 16.3861 14.245 16.3099 14.1259C16.2337 14.0067 16.0703 13.9525 15.7982 13.8225Z" fill="#868686"/>
</svg>
