<svg width="45" height="45" viewBox="0 0 45 45" fill="none" xmlns="http://www.w3.org/2000/svg">
<circle cx="22.5" cy="22.5" r="22.5" fill="#09BC8A"/>
<path d="M20.4634 35.2196C20.4633 35.8276 20.2217 36.4106 19.7918 36.8406C19.362 37.2706 18.7789 37.5122 18.1709 37.5124C17.7174 37.5124 17.2741 37.378 16.897 37.1261C16.5199 36.8742 16.226 36.5162 16.0524 36.0972C15.8788 35.6783 15.8333 35.2173 15.9218 34.7725C16.0102 34.3277 16.2285 33.9191 16.5492 33.5984C16.8698 33.2777 17.2784 33.0593 17.7231 32.9708C18.1679 32.8823 18.6289 32.9277 19.0479 33.1012C19.4669 33.2748 19.825 33.5686 20.0769 33.9457C20.3289 34.3228 20.4634 34.7661 20.4634 35.2196ZM30.7805 35.2196C30.7805 36.4848 29.7543 37.5124 28.488 37.5124C27.2218 37.5124 26.1952 36.4848 26.1952 35.2196C26.1952 33.9523 27.2218 32.9267 28.488 32.9267C29.7543 32.9267 30.7805 33.9523 30.7805 35.2196ZM36.5124 14.5853H14.3095L13.9436 12.2636C13.7466 11.0186 12.5543 10 11.2928 10H9V12.2925H11.6264L14.5248 30.6477C14.6232 31.2702 15.2199 31.7805 15.8502 31.7805H34.2196V29.4877H16.6629L16.3004 27.1952H34.2196L36.5124 14.5853ZM32.3068 24.9024H15.9386L14.6713 16.8781H33.7653L32.3068 24.9024Z" fill="white"/>
</svg>
