<svg width="27" height="27" viewBox="0 0 27 27" fill="none" xmlns="http://www.w3.org/2000/svg">
<circle cx="13.5" cy="13.5" r="13.5" fill="#0C1B33"/>
<path fill-rule="evenodd" clip-rule="evenodd" d="M8.97418 7.89857C9.46497 7.40529 10.1226 7.13514 10.8 7.13514H17.2C17.8774 7.13514 18.535 7.40529 19.0258 7.89857C19.5178 8.39301 19.8 9.07059 19.8 9.78378V16.2162C19.8 16.9294 19.5178 17.607 19.0258 18.1014C18.535 18.5947 17.8774 18.8649 17.2 18.8649H10.8C10.1226 18.8649 9.46497 18.5947 8.97418 18.1014C8.48223 17.607 8.2 16.9294 8.2 16.2162V9.78378C8.2 9.07059 8.48223 8.39301 8.97418 7.89857ZM10.8 6C9.78004 6 8.80978 6.40755 8.10034 7.12058C7.39206 7.83245 7 8.79099 7 9.78378V16.2162C7 17.209 7.39206 18.1675 8.10034 18.8794C8.80978 19.5925 9.78004 20 10.8 20H17.2C18.22 20 19.1902 19.5925 19.8997 18.8794C20.6079 18.1675 21 17.209 21 16.2162V9.78378C21 8.79099 20.6079 7.83245 19.8997 7.12058C19.1902 6.40755 18.22 6 17.2 6H10.8ZM18.2 9.38176C18.2 9.0683 17.9313 8.81419 17.6 8.81419C17.2686 8.81419 17 9.0683 17 9.38176V9.3898C17 9.70326 17.2686 9.95737 17.6 9.95737C17.9313 9.95737 18.2 9.70326 18.2 9.3898V9.38176ZM14 10.0203C13.1922 10.0203 12.4254 10.3431 11.866 10.9054C11.3077 11.4664 11 12.2205 11 13C11 13.7795 11.3077 14.5336 11.866 15.0946C12.4254 15.6569 13.1922 15.9797 14 15.9797C14.8078 15.9797 15.5745 15.6569 16.1339 15.0946C16.6922 14.5336 17 13.7795 17 13C17 12.2205 16.6922 11.4664 16.1339 10.9054C15.5745 10.3431 14.8078 10.0203 14 10.0203ZM12.7398 11.6833C13.0806 11.3408 13.5347 11.1554 14 11.1554C14.4652 11.1554 14.9193 11.3408 15.2601 11.6833C15.602 12.027 15.8 12.5001 15.8 13C15.8 13.4999 15.602 13.973 15.2601 14.3167C14.9193 14.6592 14.4652 14.8446 14 14.8446C13.5347 14.8446 13.0806 14.6592 12.7398 14.3167C12.3979 13.973 12.2 13.4999 12.2 13C12.2 12.5001 12.3979 12.027 12.7398 11.6833Z" fill="#4BF9D8"/>
</svg>
