<svg width="34" height="34" viewBox="0 0 34 34" fill="none" xmlns="http://www.w3.org/2000/svg">
<path d="M17 2.83337C19.8019 2.83337 22.5408 3.66423 24.8705 5.22089C27.2002 6.77754 29.016 8.99007 30.0882 11.5787C31.1605 14.1673 31.441 17.0158 30.8944 19.7638C30.3478 22.5119 28.9985 25.0361 27.0173 27.0174C25.0361 28.9986 22.5118 30.3479 19.7637 30.8945C17.0157 31.4411 14.1672 31.1606 11.5786 30.0883C8.98998 29.0161 6.77745 27.2003 5.2208 24.8706C3.66415 22.5409 2.83329 19.8019 2.83329 17C2.83741 13.2441 4.33129 9.64312 6.98716 6.98725C9.64303 4.33138 13.244 2.8375 17 2.83337ZM17 28.3334C19.2415 28.3334 21.4327 27.6687 23.2964 26.4234C25.1602 25.178 26.6128 23.408 27.4706 21.3371C28.3284 19.2662 28.5528 16.9875 28.1155 14.789C27.6782 12.5906 26.5988 10.5712 25.0138 8.98616C23.4288 7.40117 21.4094 6.32177 19.211 5.88447C17.0125 5.44718 14.7338 5.67161 12.6629 6.52941C10.592 7.3872 8.82195 8.83982 7.57663 10.7036C6.33131 12.5673 5.66662 14.7585 5.66662 17C5.66999 20.0048 6.86512 22.8855 8.9898 25.0102C11.1145 27.1349 13.9952 28.33 17 28.3334Z" fill="white"/>
<path d="M15.1683 10.3318L21.8365 17L15.1683 23.6683L13.1651 21.6651L17.8302 17L13.1651 12.335L15.1683 10.3318Z" fill="white"/>
</svg>
