<svg width="29" height="29" viewBox="0 0 29 29" fill="none" xmlns="http://www.w3.org/2000/svg">
<path d="M9.42496 2.4165H19.575C23.4416 2.4165 26.5833 5.55817 26.5833 9.42484V19.5748C26.5833 21.4336 25.8449 23.2162 24.5306 24.5305C23.2163 25.8448 21.4337 26.5832 19.575 26.5832H9.42496C5.55829 26.5832 2.41663 23.4415 2.41663 19.5748V9.42484C2.41663 7.56611 3.155 5.78351 4.46932 4.4692C5.78364 3.15488 7.56623 2.4165 9.42496 2.4165ZM9.18329 4.83317C8.0296 4.83317 6.92316 5.29147 6.10738 6.10726C5.29159 6.92304 4.83329 8.02948 4.83329 9.18317V19.8165C4.83329 22.2211 6.77871 24.1665 9.18329 24.1665H19.8166C20.9703 24.1665 22.0768 23.7082 22.8925 22.8924C23.7083 22.0766 24.1666 20.9702 24.1666 19.8165V9.18317C24.1666 6.77859 22.2212 4.83317 19.8166 4.83317H9.18329ZM20.8437 6.64567C21.2443 6.64567 21.6285 6.8048 21.9117 7.08806C22.195 7.37132 22.3541 7.7555 22.3541 8.15609C22.3541 8.55667 22.195 8.94085 21.9117 9.22411C21.6285 9.50737 21.2443 9.6665 20.8437 9.6665C20.4431 9.6665 20.0589 9.50737 19.7757 9.22411C19.4924 8.94085 19.3333 8.55667 19.3333 8.15609C19.3333 7.7555 19.4924 7.37132 19.7757 7.08806C20.0589 6.8048 20.4431 6.64567 20.8437 6.64567ZM14.5 8.45817C16.1023 8.45817 17.639 9.0947 18.7721 10.2277C19.9051 11.3608 20.5416 12.8975 20.5416 14.4998C20.5416 16.1022 19.9051 17.6389 18.7721 18.7719C17.639 19.905 16.1023 20.5415 14.5 20.5415C12.8976 20.5415 11.3609 19.905 10.2279 18.7719C9.09482 17.6389 8.45829 16.1022 8.45829 14.4998C8.45829 12.8975 9.09482 11.3608 10.2279 10.2277C11.3609 9.0947 12.8976 8.45817 14.5 8.45817ZM14.5 10.8748C13.5385 10.8748 12.6165 11.2568 11.9367 11.9366C11.2569 12.6164 10.875 13.5384 10.875 14.4998C10.875 15.4612 11.2569 16.3833 11.9367 17.0631C12.6165 17.7429 13.5385 18.1248 14.5 18.1248C15.4614 18.1248 16.3834 17.7429 17.0632 17.0631C17.743 16.3833 18.125 15.4612 18.125 14.4998C18.125 13.5384 17.743 12.6164 17.0632 11.9366C16.3834 11.2568 15.4614 10.8748 14.5 10.8748Z" fill="white"/>
</svg>
