<svg width="27" height="27" viewBox="0 0 27 27" fill="none" xmlns="http://www.w3.org/2000/svg">
<circle cx="13.5" cy="13.5" r="13.5" fill="#0C1B33"/>
<path fill-rule="evenodd" clip-rule="evenodd" d="M8.11519 8.03418C8.64104 7.50567 9.34562 7.21622 10.0714 7.21622H16.9286C17.6544 7.21622 18.359 7.50566 18.8848 8.03418C19.4119 8.56394 19.7143 9.28992 19.7143 10.0541V16.9459C19.7143 17.7101 19.4119 18.4361 18.8848 18.9658C18.359 19.4943 17.6544 19.7838 16.9286 19.7838H10.0714C9.34562 19.7838 8.64104 19.4943 8.11519 18.9658C7.5881 18.4361 7.28571 17.7101 7.28571 16.9459V10.0541C7.28571 9.28992 7.5881 8.56394 8.11519 8.03418ZM10.0714 6C8.97861 6 7.93905 6.43666 7.17893 7.20063C6.42006 7.96334 6 8.99035 6 10.0541V16.9459C6 18.0097 6.42006 19.0367 7.17893 19.7994C7.93905 20.5633 8.97861 21 10.0714 21H16.9286C18.0214 21 19.061 20.5633 19.8211 19.7994C20.5799 19.0367 21 18.0097 21 16.9459V10.0541C21 8.99035 20.5799 7.96334 19.8211 7.20063C19.061 6.43666 18.0214 6 16.9286 6H10.0714ZM18.0001 9.6234C18.0001 9.28755 17.7123 9.01529 17.3572 9.01529C17.0022 9.01529 16.7144 9.28755 16.7144 9.6234V9.63201C16.7144 9.96786 17.0022 10.2401 17.3572 10.2401C17.7123 10.2401 18.0001 9.96786 18.0001 9.63201V9.6234ZM13.5001 10.3075C12.6346 10.3075 11.8131 10.6534 11.2137 11.2558C10.6156 11.857 10.2858 12.6649 10.2858 13.5001C10.2858 14.3353 10.6156 15.1432 11.2137 15.7444C11.8131 16.3468 12.6346 16.6927 13.5001 16.6927C14.3656 16.6927 15.1871 16.3468 15.7865 15.7444C16.3846 15.1432 16.7144 14.3353 16.7144 13.5001C16.7144 12.6649 16.3846 11.857 15.7865 11.2558C15.1871 10.6534 14.3656 10.3075 13.5001 10.3075ZM12.15 12.0894C12.5151 11.7224 13.0016 11.5237 13.5001 11.5237C13.9986 11.5237 14.4851 11.7224 14.8502 12.0894C15.2166 12.4576 15.4287 12.9644 15.4287 13.5001C15.4287 14.0357 15.2166 14.5426 14.8502 14.9108C14.4851 15.2778 13.9986 15.4764 13.5001 15.4764C13.0016 15.4764 12.5151 15.2778 12.15 14.9108C11.7836 14.5426 11.5715 14.0357 11.5715 13.5001C11.5715 12.9644 11.7836 12.4576 12.15 12.0894Z" fill="#4BF9D8"/>
</svg>
