<svg width="27" height="27" viewBox="0 0 27 27" fill="none" xmlns="http://www.w3.org/2000/svg">
<circle cx="13.5" cy="13.5" r="13.5" fill="#0C1B33"/>
<path d="M18.1055 8.89153C17.5066 8.28959 16.7932 7.81232 16.007 7.48757C15.2208 7.16282 14.3774 6.99709 13.5261 7.00004C9.9593 7.00004 7.05226 9.89253 7.05226 13.4415C7.05226 14.579 7.35276 15.684 7.91457 16.659L7 20L10.4296 19.103C11.3769 19.6165 12.4417 19.8895 13.5261 19.8895C17.093 19.8895 20 16.997 20 13.448C20 11.7255 19.3271 10.107 18.1055 8.89153ZM13.5261 18.7975C12.5593 18.7975 11.6121 18.5375 10.7824 18.05L10.5864 17.933L8.54824 18.466L9.09045 16.49L8.9598 16.2885C8.42265 15.435 8.13743 14.4485 8.13668 13.4415C8.13668 10.4905 10.5538 8.08554 13.5196 8.08554C14.9568 8.08554 16.309 8.64453 17.3216 9.65853C17.823 10.1551 18.2203 10.7458 18.4906 11.3963C18.7608 12.0467 18.8986 12.7441 18.896 13.448C18.909 16.399 16.492 18.7975 13.5261 18.7975ZM16.4789 14.7935C16.3156 14.7155 15.5186 14.3255 15.3749 14.267C15.2246 14.215 15.1201 14.189 15.009 14.345C14.898 14.5075 14.591 14.8715 14.4995 14.9755C14.408 15.086 14.31 15.099 14.1467 15.0145C13.9834 14.9365 13.4608 14.761 12.8467 14.215C12.3633 13.786 12.0432 13.2595 11.9452 13.097C11.8538 12.9345 11.9322 12.85 12.0171 12.7655C12.0889 12.694 12.1804 12.577 12.2588 12.486C12.3372 12.395 12.3698 12.3235 12.4221 12.2195C12.4744 12.109 12.4482 12.018 12.409 11.94C12.3698 11.862 12.0432 11.069 11.9126 10.744C11.7819 10.432 11.6447 10.471 11.5467 10.4645H11.2332C11.1221 10.4645 10.9523 10.5035 10.802 10.666C10.6583 10.8285 10.2402 11.2185 10.2402 12.0115C10.2402 12.8045 10.8216 13.5715 10.9 13.6755C10.9784 13.786 12.0432 15.411 13.6633 16.1065C14.0487 16.2755 14.3492 16.373 14.5844 16.4445C14.9698 16.568 15.3226 16.5485 15.6035 16.5095C15.9171 16.464 16.5638 16.1195 16.6945 15.7425C16.8317 15.3655 16.8317 15.047 16.7859 14.9755C16.7402 14.904 16.6422 14.8715 16.4789 14.7935Z" fill="#4BF9D8"/>
</svg>
