<svg width="64" height="96" viewBox="0 0 64 96" fill="none" xmlns="http://www.w3.org/2000/svg">
<g clip-path="url(#clip0_56_364)">
<path d="M8.31459 26.0715L22.449 9.04366C28.5342 1.70944 38.4349 -1.20275 47.4991 1.67361L56.4765 4.51927C59.3891 5.44053 61.4651 8.03028 61.7457 11.0807C61.5519 17.2377 56.9764 19.8377 56.9764 19.8377C51.7532 23.3027 41.9137 24.4747 36.7568 20.9176L22.8417 43.8876L21.995 42.0093C20.0414 37.6743 14.4101 36.5739 10.9772 39.8546L5.67746 44.9215C1.72433 40.2947 1.78554 33.4518 5.82029 28.8967L8.31969 26.0767L8.31459 26.0715Z" fill="#2B787A"/>
<path d="M14.6083 50.7612C17.4846 50.7612 19.8163 48.4216 19.8163 45.5356C19.8163 42.6496 17.4846 40.3101 14.6083 40.3101C11.7321 40.3101 9.40039 42.6496 9.40039 45.5356C9.40039 48.4216 11.7321 50.7612 14.6083 50.7612Z" fill="#2E323F"/>
<path d="M5.96775 25.6315C5.96775 25.6315 -3.86663 9.14097 1.71367 3.98706C7.28887 -1.16686 16.0929 -2.9326 19.6124 8.70082L5.96775 25.6315Z" fill="#D3D8ED"/>
<path d="M63.9239 24.4542C64.3626 14.2948 62.7508 11.6385 62.7508 11.6385C62.7508 11.6385 64.2198 22.0999 49.1061 24.4542C49.1061 24.4542 47.1984 47.8644 38.3943 57.7269C29.5903 67.5895 15.5019 77.6005 18.1441 81.2855C20.7863 84.9654 25.4791 97.4791 40.8886 95.8618C56.2931 94.2445 41.6232 75.3997 45.1427 68.48C48.6623 61.5604 63.4853 34.6188 63.9239 24.4593V24.4542ZM36.7774 89.8225C30.3197 89.9709 26.6522 81.7256 26.6522 81.7256C26.6522 81.7256 28.7079 73.4804 34.737 78.1942C40.7662 82.9079 39.7103 78.6343 41.766 83.6398C43.8216 88.6453 43.235 89.674 36.7774 89.8225Z" fill="#D3D8ED"/>
<path d="M36.7055 38.4368C38.5282 38.4368 40.0057 36.9543 40.0057 35.1254C40.0057 33.2966 38.5282 31.814 36.7055 31.814C34.8828 31.814 33.4053 33.2966 33.4053 35.1254C33.4053 36.9543 34.8828 38.4368 36.7055 38.4368Z" fill="#2E323F"/>
</g>
<defs>
<clipPath id="clip0_56_364">
<rect width="64" height="96" fill="white"/>
</clipPath>
</defs>
</svg>
