<svg width="103" height="49" viewBox="0 0 103 49" fill="none" xmlns="http://www.w3.org/2000/svg">
<g clip-path="url(#clip0_59_382)">
<path d="M103 4.36288H64.4336V14.4046H103V4.36288Z" fill="#D3D8ED"/>
<path d="M81.6052 21.2584V34.4879C81.6052 34.4879 62.1146 27.5711 42.5499 34.4879C22.9852 41.4048 18.1755 52.8328 12.4654 47.7175C6.75537 42.6058 4.95082 38.0946 9.1602 37.1939C13.3696 36.2931 30.2478 26.5109 45.681 24.7094C61.1141 22.9079 81.6052 21.2584 81.6052 21.2584Z" fill="#2E323F"/>
<path d="M89.8091 14.1414H77.9072V40.3002H89.8091V14.1414Z" fill="#D3D8ED"/>
<path d="M0 5.4601L0 13.3037C0 16.3212 2.44534 18.7675 5.46181 18.7675L89.112 18.7675C92.1285 18.7675 94.5738 16.3212 94.5738 13.3037V5.4601C94.5738 2.44252 92.1285 -0.00370598 89.112 -0.00370598L5.46181 -0.00370598C2.44534 -0.00370598 0 2.44252 0 5.4601Z" fill="#2B787A"/>
</g>
<defs>
<clipPath id="clip0_59_382">
<rect width="103" height="49" fill="white"/>
</clipPath>
</defs>
</svg>
