<svg width="85" height="78" viewBox="0 0 85 78" fill="none" xmlns="http://www.w3.org/2000/svg">
<g clip-path="url(#clip0_59_377)">
<path d="M33.8653 54.1027H13.7705V64.7814H33.8653V54.1027Z" fill="#D3D8ED"/>
<path d="M16.0845 0H4.38672V64.7814H16.0845V0Z" fill="#D3D8ED"/>
<path d="M81.1179 40.9839H35.5779C33.4358 40.9839 31.6963 42.7349 31.6963 44.8986V74.0853C31.6963 76.2491 33.4358 78 35.5779 78H81.1179C83.2634 78 84.9995 76.2491 84.9995 74.0853V44.8986C84.9995 42.7349 83.2634 40.9839 81.1179 40.9839ZM79.6029 69.7013C79.6029 71.3591 78.2727 72.7006 76.6289 72.7006H40.0636C38.4198 72.7006 37.0897 71.3591 37.0897 69.7013V64.4485C37.0897 62.7908 38.4198 61.4493 40.0636 61.4493H76.6289C78.2727 61.4493 79.6029 62.7908 79.6029 64.4485V69.7013ZM79.6029 54.5321C79.6029 56.1898 78.2727 57.5313 76.6289 57.5313H40.0636C38.4198 57.5313 37.0897 56.1898 37.0897 54.5321V49.2793C37.0897 47.6215 38.4198 46.28 40.0636 46.28H76.6289C78.2727 46.28 79.6029 47.6215 79.6029 49.2793V54.5321Z" fill="#2B787A"/>
<path d="M14.7014 50.5143H5.76965C2.58316 50.5143 0 53.1194 0 56.333V62.5545C0 65.768 2.58316 68.3732 5.76965 68.3732H14.7014C17.8879 68.3732 20.471 65.768 20.471 62.5545V56.333C20.471 53.1194 17.8879 50.5143 14.7014 50.5143Z" fill="#2E323F"/>
</g>
<defs>
<clipPath id="clip0_59_377">
<rect width="85" height="78" fill="white"/>
</clipPath>
</defs>
</svg>
